<svg width="304" height="1232" viewBox="0 0 304 1232" class="keymap" xmlns="http://www.w3.org/2000/svg" xmlns:xlink="http://www.w3.org/1999/xlink">
<defs>/* start glyphs */
<svg id="mdi:backspace">
<svg xmlns="http://www.w3.org/2000/svg" id="mdi-backspace" viewBox="0 0 24 24"><path d="M22,3H7C6.31,3 5.77,3.35 5.41,3.88L0,12L5.41,20.11C5.77,20.64 6.31,21 7,21H22A2,2 0 0,0 24,19V5A2,2 0 0,0 22,3M19,15.59L17.59,17L14,13.41L10.41,17L9,15.59L12.59,12L9,8.41L10.41,7L14,10.59L17.59,7L19,8.41L15.41,12" /></svg>
</svg>
<svg id="mdi:bluetooth">
<svg xmlns="http://www.w3.org/2000/svg" id="mdi-bluetooth" viewBox="0 0 24 24"><path d="M14.88,16.29L13,18.17V14.41M13,5.83L14.88,7.71L13,9.58M17.71,7.71L12,2H11V9.58L6.41,5L5,6.41L10.59,12L5,17.58L6.41,19L11,14.41V22H12L17.71,16.29L13.41,12L17.71,7.71Z" /></svg>
</svg>
<svg id="mdi:bluetooth-connect">
<svg xmlns="http://www.w3.org/2000/svg" id="mdi-bluetooth-connect" viewBox="0 0 24 24"><path d="M19,10L17,12L19,14L21,12M14.88,16.29L13,18.17V14.41M13,5.83L14.88,7.71L13,9.58M17.71,7.71L12,2H11V9.58L6.41,5L5,6.41L10.59,12L5,17.58L6.41,19L11,14.41V22H12L17.71,16.29L13.41,12M7,12L5,10L3,12L5,14L7,12Z" /></svg>
</svg>
<svg id="mdi:bluetooth-off">
<svg xmlns="http://www.w3.org/2000/svg" id="mdi-bluetooth-off" viewBox="0 0 24 24"><path d="M13,5.83L14.88,7.71L13.28,9.31L14.69,10.72L17.71,7.7L12,2H11V7.03L13,9.03M5.41,4L4,5.41L10.59,12L5,17.59L6.41,19L11,14.41V22H12L16.29,17.71L18.59,20L20,18.59M13,18.17V14.41L14.88,16.29" /></svg>
</svg>
<svg id="mdi:keyboard-esc">
<svg xmlns="http://www.w3.org/2000/svg" id="mdi-keyboard-esc" viewBox="0 0 24 24"><path d="M1 7H7V9H3V11H7V13H3V15H7V17H1V7M11 7H15V9H11V11H13C14.11 11 15 11.9 15 13V15C15 16.11 14.11 17 13 17H9V15H13V13H11C9.9 13 9 12.11 9 11V9C9 7.9 9.9 7 11 7M19 7H21C22.11 7 23 7.9 23 9V10H21V9H19V15H21V14H23V15C23 16.11 22.11 17 21 17H19C17.9 17 17 16.11 17 15V9C17 7.9 17.9 7 19 7Z" /></svg>
</svg>
<svg id="mdi:toggle-switch">
<svg xmlns="http://www.w3.org/2000/svg" id="mdi-toggle-switch" viewBox="0 0 24 24"><path d="M17,7H7A5,5 0 0,0 2,12A5,5 0 0,0 7,17H17A5,5 0 0,0 22,12A5,5 0 0,0 17,7M17,15A3,3 0 0,1 14,12A3,3 0 0,1 17,9A3,3 0 0,1 20,12A3,3 0 0,1 17,15Z" /></svg>
</svg>
<svg id="mdi:transfer">
<svg xmlns="http://www.w3.org/2000/svg" id="mdi-transfer" viewBox="0 0 24 24"><path d="M8 4A2 2 0 0 0 6 6V10H8V6H16V9H13.5L17 12.5L20.5 9H18V6A2 2 0 0 0 16 4H8M3 12V14H11V12H3M3 15V17H11V15H3M13 15V17H21V15H13M3 18V20H11V18H3M13 18V20H21V18H13Z" /></svg>
</svg>
<svg id="mdi:usb">
<svg xmlns="http://www.w3.org/2000/svg" id="mdi-usb" viewBox="0 0 24 24"><path d="M15,7V11H16V13H13V5H15L12,1L9,5H11V13H8V10.93C8.7,10.56 9.2,9.85 9.2,9C9.2,7.78 8.21,6.8 7,6.8C5.78,6.8 4.8,7.78 4.8,9C4.8,9.85 5.3,10.56 6,10.93V13A2,2 0 0,0 8,15H11V18.05C10.29,18.41 9.8,19.15 9.8,20A2.2,2.2 0 0,0 12,22.2A2.2,2.2 0 0,0 14.2,20C14.2,19.15 13.71,18.41 13,18.05V15H16A2,2 0 0,0 18,13V11H19V7H15Z" /></svg>
</svg>
</defs>/* end glyphs */
<style>/* inherit to force styles through use tags */
svg path {
    fill: inherit;
}

/* font and background color specifications */
svg.keymap {
    font-family: SFMono-Regular,Consolas,Liberation Mono,Menlo,monospace;
    font-size: 14px;
    font-kerning: normal;
    text-rendering: optimizeLegibility;
    fill: #24292e;
}

/* default key styling */
rect.key {
    fill: #f6f8fa;
}

rect.key, rect.combo {
    stroke: #c9cccf;
    stroke-width: 1;
}

/* default key side styling, only used is draw_key_sides is set */
rect.side {
    filter: brightness(90%);
}

/* color accent for combo boxes */
rect.combo, rect.combo-separate {
    fill: #cdf;
}

/* color accent for held keys */
rect.held, rect.combo.held {
    fill: #fdd;
}

/* color accent for ghost (optional) keys */
rect.ghost, rect.combo.ghost {
    stroke-dasharray: 4, 4;
    stroke-width: 2;
}

text {
    text-anchor: middle;
    dominant-baseline: middle;
}

/* styling for layer labels */
text.label {
    font-weight: bold;
    text-anchor: start;
    stroke: white;
    stroke-width: 4;
    paint-order: stroke;
}

/* styling for optional footer */
text.footer {
    text-anchor: end;
    dominant-baseline: auto;
    stroke: white;
    stroke-width: 4;
    paint-order: stroke;
}

/* styling for combo tap, and key non-tap label text */
text.combo, text.hold, text.shifted, text.left, text.right, text.tl, text.tr, text.bl, text.br {
    font-size: 11px;
}

text.hold, text.bl, text.br {
    text-anchor: middle;
    dominant-baseline: auto;
}

text.shifted, text.tl, text.tr {
    text-anchor: middle;
    dominant-baseline: hanging;
}

text.left, text.tl, text.bl {
    text-anchor: start;
}

text.right, text.tr, text.br {
    text-anchor: end;
}

text.layer-activator {
    text-decoration: underline;
}

/* styling for hold/shifted label text in combo box */
text.combo.hold, text.combo.shifted, text.combo.left, text.combo.right {
    font-size: 8px;
}

/* lighter symbol for transparent keys */
text.trans {
    fill: #7b7e81;
}

/* styling for combo dendrons */
path.combo {
    stroke-width: 1;
    stroke: gray;
    fill: none;
}

/* Start Tabler Icons Cleanup */
/* cannot use height/width with glyphs */
.icon-tabler > path {
    fill: inherit;
    stroke: inherit;
    stroke-width: 2;
}
/* hide tabler's default box */
.icon-tabler > path[stroke="none"][fill="none"] {
    visibility: hidden;
}
/* End Tabler Icons Cleanup */

/* For default sytles, see https://github.com/caksoylar/keymap-drawer/blob/main/keymap_drawer/config.py#L85 */

svg.keymap {
  font-family: Ubuntu Mono, Inconsolata, Consolas, Liberation Mono, Menlo, monospace;
  font-size: 12px;
  font-weight: bold;
  text-rendering: optimizeLegibility;
}

/* Color accent for held keys */
rect.held, rect.combo.held {
    fill: #ffc;
}

/* Technique borrowed and extended from https://github.com/englmaxi/zmk-config/blob/master/keymap-drawer/config.yaml */
.sym_sub_text.tap {
  translate: -5px 2px;
  font-size: 20px;
}
.sym_sub_text.shifted {
  translate: 10px 13px;
  font-size: 10px;
  opacity: 1.0;
}
.combo.sym_sub_text.tap {
  translate: -1px 1px;
}
.combo.sym_sub_text.shifted {
  translate: 7px 5px;
  font-size: 10px;
  opacity: 1.0;
}

/* Toggle */
.toggle.shifted {
  translate: -10px 12px;
}

.toggle.hold {
  translate: 13px -23px;
}

/* Variant for tap-dances */
.tap_dance.tap {
  translate: -7px 0px;
  font-size: 12px;
}
.tap_dance.shifted {
  translate: 7px 17px;
  font-size: 12px;
  opacity: 1.0;
}

/* Variant for symbol next to symbol */
.sym_by_sym.tap {
  translate: -6px 0px;
}
.sym_by_sym.shifted {
  translate: 10px 12px;
  opacity: 1.0;
}

.combo.sym_by_sym.tap {
  translate: -35px 0px;
}
.combo.sym_by_sym.shifted {
  translate: 35px 20px;
  opacity: 1.0;
}

.combo.sym_by_sym.hold {
  visibility: hidden;
}

/* hide hold box for combo sym_by_sym */
.combo.sym_by_sym.hold > path[stroke="none"][fill="none"] {
  visibility: hidden;
}
</style>
<g transform="translate(40, 0)" class="layer-1">
<text x="0" y="28" class="label" id="x_x">1:</text>
<g transform="translate(0, 56)">
<g transform="translate(28, 28)" class="key keypos-0">
<rect rx="6" ry="6" x="-26" y="-26" width="52" height="52" class="key side"/>
<rect rx="4" ry="4" x="-20" y="-24" width="40" height="40" class="key"/>
<use href="#mdi:keyboard-esc" xlink:href="#mdi:keyboard-esc" x="-9" y="-13" height="18" width="18.0" class="key tap glyph mdi:keyboard-esc"/>
</g>
<g transform="translate(84, 28)" class="key keypos-1">
<rect rx="6" ry="6" x="-26" y="-26" width="52" height="52" class="key side"/>
<rect rx="4" ry="4" x="-20" y="-24" width="40" height="40" class="key"/>
<text x="0" y="-4" class="key tap">
<tspan x="0" dy="-0.6em">AL</tspan><tspan x="0" dy="1.2em">CAL</tspan>
</text>
</g>
<g transform="translate(168, 28)" class="key backspace keypos-2">
<rect rx="6" ry="6" x="-54" y="-26" width="108" height="52" class="key backspace side"/>
<rect rx="4" ry="4" x="-48" y="-24" width="96" height="40" class="key backspace"/>
<use href="#mdi:backspace" xlink:href="#mdi:backspace" x="-9" y="-13" height="18" width="18.0" class="key backspace tap glyph mdi:backspace"/>
</g>
<g transform="translate(28, 84)" class="key keypos-3">
<rect rx="6" ry="6" x="-26" y="-26" width="52" height="52" class="key side"/>
<rect rx="4" ry="4" x="-20" y="-24" width="40" height="40" class="key"/>
<text x="0" y="-4" class="key tap">
<tspan x="0" dy="-0.9em">KP</tspan><tspan x="0" dy="1.2em">NLCK</tspan>
</text>
<a href="#x_x">
<text x="0" y="24" class="key hold layer-activator">2</text>
</a></g>
<g transform="translate(84, 84)" class="key keypos-4">
<rect rx="6" ry="6" x="-26" y="-26" width="52" height="52" class="key side"/>
<rect rx="4" ry="4" x="-20" y="-24" width="40" height="40" class="key"/>
<text x="0" y="-4" class="key tap">
<tspan x="0" dy="-0.6em">KP</tspan><tspan x="0" dy="1.2em">DIVIDE</tspan>
</text>
</g>
<g transform="translate(140, 84)" class="key keypos-5">
<rect rx="6" ry="6" x="-26" y="-26" width="52" height="52" class="key side"/>
<rect rx="4" ry="4" x="-20" y="-24" width="40" height="40" class="key"/>
<text x="0" y="-4" class="key tap">
<tspan x="0" dy="-0.6em" style="font-size: 75%">KP</tspan><tspan x="0" dy="1.2em" style="font-size: 75%">MULTIPLY</tspan>
</text>
</g>
<g transform="translate(196, 84)" class="key keypos-6">
<rect rx="6" ry="6" x="-26" y="-26" width="52" height="52" class="key side"/>
<rect rx="4" ry="4" x="-20" y="-24" width="40" height="40" class="key"/>
<text x="0" y="-4" class="key tap">
<tspan x="0" dy="-0.6em">KP</tspan><tspan x="0" dy="1.2em">MINUS</tspan>
</text>
</g>
<g transform="translate(28, 140)" class="key keypos-7">
<rect rx="6" ry="6" x="-26" y="-26" width="52" height="52" class="key side"/>
<rect rx="4" ry="4" x="-20" y="-24" width="40" height="40" class="key"/>
<text x="0" y="-4" class="key tap">
<tspan x="0" dy="-0.6em">KP</tspan><tspan x="0" dy="1.2em">7</tspan>
</text>
</g>
<g transform="translate(84, 140)" class="key keypos-8">
<rect rx="6" ry="6" x="-26" y="-26" width="52" height="52" class="key side"/>
<rect rx="4" ry="4" x="-20" y="-24" width="40" height="40" class="key"/>
<text x="0" y="-4" class="key tap">
<tspan x="0" dy="-0.6em">KP</tspan><tspan x="0" dy="1.2em">8</tspan>
</text>
</g>
<g transform="translate(140, 140)" class="key keypos-9">
<rect rx="6" ry="6" x="-26" y="-26" width="52" height="52" class="key side"/>
<rect rx="4" ry="4" x="-20" y="-24" width="40" height="40" class="key"/>
<text x="0" y="-4" class="key tap">
<tspan x="0" dy="-0.6em">KP</tspan><tspan x="0" dy="1.2em">9</tspan>
</text>
</g>
<g transform="translate(28, 196)" class="key keypos-10">
<rect rx="6" ry="6" x="-26" y="-26" width="52" height="52" class="key side"/>
<rect rx="4" ry="4" x="-20" y="-24" width="40" height="40" class="key"/>
<text x="0" y="-4" class="key tap">
<tspan x="0" dy="-0.6em">KP</tspan><tspan x="0" dy="1.2em">4</tspan>
</text>
</g>
<g transform="translate(84, 196)" class="key keypos-11">
<rect rx="6" ry="6" x="-26" y="-26" width="52" height="52" class="key side"/>
<rect rx="4" ry="4" x="-20" y="-24" width="40" height="40" class="key"/>
<text x="0" y="-4" class="key tap">
<tspan x="0" dy="-0.6em">KP</tspan><tspan x="0" dy="1.2em">5</tspan>
</text>
</g>
<g transform="translate(140, 196)" class="key keypos-12">
<rect rx="6" ry="6" x="-26" y="-26" width="52" height="52" class="key side"/>
<rect rx="4" ry="4" x="-20" y="-24" width="40" height="40" class="key"/>
<text x="0" y="-4" class="key tap">
<tspan x="0" dy="-0.6em">KP</tspan><tspan x="0" dy="1.2em">6</tspan>
</text>
</g>
<g transform="translate(196, 168)" class="key keypos-13">
<rect rx="6" ry="6" x="-26" y="-54" width="52" height="108" class="key side"/>
<rect rx="4" ry="4" x="-20" y="-52" width="40" height="96" class="key"/>
<text x="0" y="-4" class="key tap">
<tspan x="0" dy="-0.6em">KP</tspan><tspan x="0" dy="1.2em">PLUS</tspan>
</text>
</g>
<g transform="translate(28, 252)" class="key keypos-14">
<rect rx="6" ry="6" x="-26" y="-26" width="52" height="52" class="key side"/>
<rect rx="4" ry="4" x="-20" y="-24" width="40" height="40" class="key"/>
<text x="0" y="-4" class="key tap">
<tspan x="0" dy="-0.6em">KP</tspan><tspan x="0" dy="1.2em">1</tspan>
</text>
</g>
<g transform="translate(84, 252)" class="key keypos-15">
<rect rx="6" ry="6" x="-26" y="-26" width="52" height="52" class="key side"/>
<rect rx="4" ry="4" x="-20" y="-24" width="40" height="40" class="key"/>
<text x="0" y="-4" class="key tap">
<tspan x="0" dy="-0.6em">KP</tspan><tspan x="0" dy="1.2em">2</tspan>
</text>
</g>
<g transform="translate(140, 252)" class="key keypos-16">
<rect rx="6" ry="6" x="-26" y="-26" width="52" height="52" class="key side"/>
<rect rx="4" ry="4" x="-20" y="-24" width="40" height="40" class="key"/>
<text x="0" y="-4" class="key tap">
<tspan x="0" dy="-0.6em">KP</tspan><tspan x="0" dy="1.2em">3</tspan>
</text>
</g>
<g transform="translate(56, 308)" class="key keypos-17">
<rect rx="6" ry="6" x="-54" y="-26" width="108" height="52" class="key side"/>
<rect rx="4" ry="4" x="-48" y="-24" width="96" height="40" class="key"/>
<text x="0" y="-4" class="key tap">
<tspan x="0" dy="-0.6em">KP</tspan><tspan x="0" dy="1.2em">0</tspan>
</text>
</g>
<g transform="translate(140, 308)" class="key keypos-18">
<rect rx="6" ry="6" x="-26" y="-26" width="52" height="52" class="key side"/>
<rect rx="4" ry="4" x="-20" y="-24" width="40" height="40" class="key"/>
<text x="0" y="-4" class="key tap">
<tspan x="0" dy="-0.6em">KP</tspan><tspan x="0" dy="1.2em">DOT</tspan>
</text>
</g>
<g transform="translate(196, 280)" class="key keypos-19">
<rect rx="6" ry="6" x="-26" y="-54" width="52" height="108" class="key side"/>
<rect rx="4" ry="4" x="-20" y="-52" width="40" height="96" class="key"/>
<text x="0" y="-4" class="key tap">
<tspan x="0" dy="-0.6em">KP</tspan><tspan x="0" dy="1.2em">ENTER</tspan>
</text>
</g>
</g>
</g>
<g transform="translate(40, 392)" class="layer-2">
<text x="0" y="28" class="label" id="x_x">2:</text>
<g transform="translate(0, 56)">
<g transform="translate(28, 28)" class="key trans keypos-0">
<rect rx="6" ry="6" x="-26" y="-26" width="52" height="52" class="key trans side"/>
<rect rx="4" ry="4" x="-20" y="-24" width="40" height="40" class="key trans"/>
<use href="#mdi:transfer" xlink:href="#mdi:transfer" x="-9" y="-13" height="18" width="18.0" class="key trans tap glyph mdi:transfer"/>
</g>
<g transform="translate(84, 28)" class="key trans keypos-1">
<rect rx="6" ry="6" x="-26" y="-26" width="52" height="52" class="key trans side"/>
<rect rx="4" ry="4" x="-20" y="-24" width="40" height="40" class="key trans"/>
<use href="#mdi:transfer" xlink:href="#mdi:transfer" x="-9" y="-13" height="18" width="18.0" class="key trans tap glyph mdi:transfer"/>
</g>
<g transform="translate(168, 28)" class="key keypos-2">
<rect rx="6" ry="6" x="-54" y="-26" width="108" height="52" class="key side"/>
<rect rx="4" ry="4" x="-48" y="-24" width="96" height="40" class="key"/>
<text x="0" y="-4" class="key tap">
<tspan x="0" dy="-0.6em">RGB</tspan><tspan x="0" dy="1.2em">TOG</tspan>
</text>
</g>
<g transform="translate(28, 84)" class="key held keypos-3">
<rect rx="6" ry="6" x="-26" y="-26" width="52" height="52" class="key held side"/>
<rect rx="4" ry="4" x="-20" y="-24" width="40" height="40" class="key held"/>
</g>
<g transform="translate(84, 84)" class="key keypos-4">
<rect rx="6" ry="6" x="-26" y="-26" width="52" height="52" class="key side"/>
<rect rx="4" ry="4" x="-20" y="-24" width="40" height="40" class="key"/>
<text x="0" y="-4" class="key tap">
<tspan x="0" dy="-0.6em">RGB</tspan><tspan x="0" dy="1.2em">EFR</tspan>
</text>
</g>
<g transform="translate(140, 84)" class="key keypos-5">
<rect rx="6" ry="6" x="-26" y="-26" width="52" height="52" class="key side"/>
<rect rx="4" ry="4" x="-20" y="-24" width="40" height="40" class="key"/>
<text x="0" y="-4" class="key tap">
<tspan x="0" dy="-0.6em">RGB</tspan><tspan x="0" dy="1.2em">EFF</tspan>
</text>
</g>
<g transform="translate(196, 84)" class="key keypos-6">
<rect rx="6" ry="6" x="-26" y="-26" width="52" height="52" class="key side"/>
<rect rx="4" ry="4" x="-20" y="-24" width="40" height="40" class="key"/>
<text x="0" y="-4" class="key tap">
<tspan x="0" dy="-0.6em">RGB</tspan><tspan x="0" dy="1.2em">BRD</tspan>
</text>
</g>
<g transform="translate(28, 140)" class="key keypos-7">
<rect rx="6" ry="6" x="-26" y="-26" width="52" height="52" class="key side"/>
<rect rx="4" ry="4" x="-20" y="-24" width="40" height="40" class="key"/>
<text x="0" y="-4" class="key tap">
<tspan x="0" dy="-0.6em">RGB</tspan><tspan x="0" dy="1.2em">SPI</tspan>
</text>
</g>
<g transform="translate(84, 140)" class="key keypos-8">
<rect rx="6" ry="6" x="-26" y="-26" width="52" height="52" class="key side"/>
<rect rx="4" ry="4" x="-20" y="-24" width="40" height="40" class="key"/>
<text x="0" y="-4" class="key tap">
<tspan x="0" dy="-0.6em">RGB</tspan><tspan x="0" dy="1.2em">HUI</tspan>
</text>
</g>
<g transform="translate(140, 140)" class="key keypos-9">
<rect rx="6" ry="6" x="-26" y="-26" width="52" height="52" class="key side"/>
<rect rx="4" ry="4" x="-20" y="-24" width="40" height="40" class="key"/>
<text x="0" y="-4" class="key tap">
<tspan x="0" dy="-0.6em">RGB</tspan><tspan x="0" dy="1.2em">SAI</tspan>
</text>
</g>
<g transform="translate(28, 196)" class="key keypos-10">
<rect rx="6" ry="6" x="-26" y="-26" width="52" height="52" class="key side"/>
<rect rx="4" ry="4" x="-20" y="-24" width="40" height="40" class="key"/>
<text x="0" y="-4" class="key tap">
<tspan x="0" dy="-0.6em">RGB</tspan><tspan x="0" dy="1.2em">SPD</tspan>
</text>
</g>
<g transform="translate(84, 196)" class="key keypos-11">
<rect rx="6" ry="6" x="-26" y="-26" width="52" height="52" class="key side"/>
<rect rx="4" ry="4" x="-20" y="-24" width="40" height="40" class="key"/>
<text x="0" y="-4" class="key tap">
<tspan x="0" dy="-0.6em">RGB</tspan><tspan x="0" dy="1.2em">HUD</tspan>
</text>
</g>
<g transform="translate(140, 196)" class="key keypos-12">
<rect rx="6" ry="6" x="-26" y="-26" width="52" height="52" class="key side"/>
<rect rx="4" ry="4" x="-20" y="-24" width="40" height="40" class="key"/>
<text x="0" y="-4" class="key tap">
<tspan x="0" dy="-0.6em">RGB</tspan><tspan x="0" dy="1.2em">SAD</tspan>
</text>
</g>
<g transform="translate(196, 168)" class="key keypos-13">
<rect rx="6" ry="6" x="-26" y="-54" width="52" height="108" class="key side"/>
<rect rx="4" ry="4" x="-20" y="-52" width="40" height="96" class="key"/>
<text x="0" y="-4" class="key tap">
<tspan x="0" dy="-0.6em">RGB</tspan><tspan x="0" dy="1.2em">BRI</tspan>
</text>
</g>
<g transform="translate(28, 252)" class="key keypos-14">
<rect rx="6" ry="6" x="-26" y="-26" width="52" height="52" class="key side"/>
<rect rx="4" ry="4" x="-20" y="-24" width="40" height="40" class="key"/>
<a href="#x_x">
<text x="0" y="24" class="key hold layer-activator">1</text>
</a><use href="#mdi:bluetooth-connect" xlink:href="#mdi:bluetooth-connect" x="-8" y="-24" height="15" width="15.0" class="key shifted glyph mdi:bluetooth-connect"/>
</g>
<g transform="translate(84, 252)" class="key keypos-15">
<rect rx="6" ry="6" x="-26" y="-26" width="52" height="52" class="key side"/>
<rect rx="4" ry="4" x="-20" y="-24" width="40" height="40" class="key"/>
<a href="#x_x">
<text x="0" y="24" class="key hold layer-activator">2</text>
</a><use href="#mdi:bluetooth-connect" xlink:href="#mdi:bluetooth-connect" x="-8" y="-24" height="15" width="15.0" class="key shifted glyph mdi:bluetooth-connect"/>
</g>
<g transform="translate(140, 252)" class="key keypos-16">
<rect rx="6" ry="6" x="-26" y="-26" width="52" height="52" class="key side"/>
<rect rx="4" ry="4" x="-20" y="-24" width="40" height="40" class="key"/>
<a href="#x_x">
<text x="0" y="24" class="key hold layer-activator">3</text>
</a><use href="#mdi:bluetooth-connect" xlink:href="#mdi:bluetooth-connect" x="-8" y="-24" height="15" width="15.0" class="key shifted glyph mdi:bluetooth-connect"/>
</g>
<g transform="translate(56, 308)" class="key keypos-17">
<rect rx="6" ry="6" x="-54" y="-26" width="108" height="52" class="key side"/>
<rect rx="4" ry="4" x="-48" y="-24" width="96" height="40" class="key"/>
<use href="#mdi:bluetooth-off" xlink:href="#mdi:bluetooth-off" x="-9" y="-13" height="18" width="18.0" class="key tap glyph mdi:bluetooth-off"/>
</g>
<g transform="translate(140, 308)" class="key keypos-18">
<rect rx="6" ry="6" x="-26" y="-26" width="52" height="52" class="key side"/>
<rect rx="4" ry="4" x="-20" y="-24" width="40" height="40" class="key"/>
<text x="0" y="-4" class="key tap">
<tspan x="0" dy="-1.2em">BT</tspan><tspan x="0" dy="1.2em">CLR</tspan><tspan x="0" dy="1.2em">ALL</tspan>
</text>
</g>
<g transform="translate(196, 280)" class="key keypos-19">
<rect rx="6" ry="6" x="-26" y="-54" width="52" height="108" class="key side"/>
<rect rx="4" ry="4" x="-20" y="-52" width="40" height="96" class="key"/>
<use href="#mdi:toggle-switch" xlink:href="#mdi:toggle-switch" x="-9" y="-13" height="18" width="18.0" class="key tap glyph mdi:toggle-switch"/>
<use href="#mdi:bluetooth" xlink:href="#mdi:bluetooth" x="-8" y="37" height="15" width="15.0" class="key hold glyph mdi:bluetooth"/>
<use href="#mdi:usb" xlink:href="#mdi:usb" x="-8" y="-52" height="15" width="15.0" class="key shifted glyph mdi:usb"/>
</g>
</g>
</g>
<g transform="translate(40, 784)" class="layer-3">
<text x="0" y="28" class="label" id="x_x">3:</text>
<g transform="translate(0, 56)">
<g transform="translate(28, 28)" class="key trans keypos-0">
<rect rx="6" ry="6" x="-26" y="-26" width="52" height="52" class="key trans side"/>
<rect rx="4" ry="4" x="-20" y="-24" width="40" height="40" class="key trans"/>
<use href="#mdi:transfer" xlink:href="#mdi:transfer" x="-9" y="-13" height="18" width="18.0" class="key trans tap glyph mdi:transfer"/>
</g>
<g transform="translate(84, 28)" class="key trans keypos-1">
<rect rx="6" ry="6" x="-26" y="-26" width="52" height="52" class="key trans side"/>
<rect rx="4" ry="4" x="-20" y="-24" width="40" height="40" class="key trans"/>
<use href="#mdi:transfer" xlink:href="#mdi:transfer" x="-9" y="-13" height="18" width="18.0" class="key trans tap glyph mdi:transfer"/>
</g>
<g transform="translate(168, 28)" class="key trans keypos-2">
<rect rx="6" ry="6" x="-54" y="-26" width="108" height="52" class="key trans side"/>
<rect rx="4" ry="4" x="-48" y="-24" width="96" height="40" class="key trans"/>
<use href="#mdi:transfer" xlink:href="#mdi:transfer" x="-9" y="-13" height="18" width="18.0" class="key trans tap glyph mdi:transfer"/>
</g>
<g transform="translate(28, 84)" class="key trans keypos-3">
<rect rx="6" ry="6" x="-26" y="-26" width="52" height="52" class="key trans side"/>
<rect rx="4" ry="4" x="-20" y="-24" width="40" height="40" class="key trans"/>
<use href="#mdi:transfer" xlink:href="#mdi:transfer" x="-9" y="-13" height="18" width="18.0" class="key trans tap glyph mdi:transfer"/>
</g>
<g transform="translate(84, 84)" class="key trans keypos-4">
<rect rx="6" ry="6" x="-26" y="-26" width="52" height="52" class="key trans side"/>
<rect rx="4" ry="4" x="-20" y="-24" width="40" height="40" class="key trans"/>
<use href="#mdi:transfer" xlink:href="#mdi:transfer" x="-9" y="-13" height="18" width="18.0" class="key trans tap glyph mdi:transfer"/>
</g>
<g transform="translate(140, 84)" class="key trans keypos-5">
<rect rx="6" ry="6" x="-26" y="-26" width="52" height="52" class="key trans side"/>
<rect rx="4" ry="4" x="-20" y="-24" width="40" height="40" class="key trans"/>
<use href="#mdi:transfer" xlink:href="#mdi:transfer" x="-9" y="-13" height="18" width="18.0" class="key trans tap glyph mdi:transfer"/>
</g>
<g transform="translate(196, 84)" class="key trans keypos-6">
<rect rx="6" ry="6" x="-26" y="-26" width="52" height="52" class="key trans side"/>
<rect rx="4" ry="4" x="-20" y="-24" width="40" height="40" class="key trans"/>
<use href="#mdi:transfer" xlink:href="#mdi:transfer" x="-9" y="-13" height="18" width="18.0" class="key trans tap glyph mdi:transfer"/>
</g>
<g transform="translate(28, 140)" class="key trans keypos-7">
<rect rx="6" ry="6" x="-26" y="-26" width="52" height="52" class="key trans side"/>
<rect rx="4" ry="4" x="-20" y="-24" width="40" height="40" class="key trans"/>
<use href="#mdi:transfer" xlink:href="#mdi:transfer" x="-9" y="-13" height="18" width="18.0" class="key trans tap glyph mdi:transfer"/>
</g>
<g transform="translate(84, 140)" class="key trans keypos-8">
<rect rx="6" ry="6" x="-26" y="-26" width="52" height="52" class="key trans side"/>
<rect rx="4" ry="4" x="-20" y="-24" width="40" height="40" class="key trans"/>
<use href="#mdi:transfer" xlink:href="#mdi:transfer" x="-9" y="-13" height="18" width="18.0" class="key trans tap glyph mdi:transfer"/>
</g>
<g transform="translate(140, 140)" class="key trans keypos-9">
<rect rx="6" ry="6" x="-26" y="-26" width="52" height="52" class="key trans side"/>
<rect rx="4" ry="4" x="-20" y="-24" width="40" height="40" class="key trans"/>
<use href="#mdi:transfer" xlink:href="#mdi:transfer" x="-9" y="-13" height="18" width="18.0" class="key trans tap glyph mdi:transfer"/>
</g>
<g transform="translate(28, 196)" class="key trans keypos-10">
<rect rx="6" ry="6" x="-26" y="-26" width="52" height="52" class="key trans side"/>
<rect rx="4" ry="4" x="-20" y="-24" width="40" height="40" class="key trans"/>
<use href="#mdi:transfer" xlink:href="#mdi:transfer" x="-9" y="-13" height="18" width="18.0" class="key trans tap glyph mdi:transfer"/>
</g>
<g transform="translate(84, 196)" class="key trans keypos-11">
<rect rx="6" ry="6" x="-26" y="-26" width="52" height="52" class="key trans side"/>
<rect rx="4" ry="4" x="-20" y="-24" width="40" height="40" class="key trans"/>
<use href="#mdi:transfer" xlink:href="#mdi:transfer" x="-9" y="-13" height="18" width="18.0" class="key trans tap glyph mdi:transfer"/>
</g>
<g transform="translate(140, 196)" class="key trans keypos-12">
<rect rx="6" ry="6" x="-26" y="-26" width="52" height="52" class="key trans side"/>
<rect rx="4" ry="4" x="-20" y="-24" width="40" height="40" class="key trans"/>
<use href="#mdi:transfer" xlink:href="#mdi:transfer" x="-9" y="-13" height="18" width="18.0" class="key trans tap glyph mdi:transfer"/>
</g>
<g transform="translate(196, 168)" class="key trans keypos-13">
<rect rx="6" ry="6" x="-26" y="-54" width="52" height="108" class="key trans side"/>
<rect rx="4" ry="4" x="-20" y="-52" width="40" height="96" class="key trans"/>
<use href="#mdi:transfer" xlink:href="#mdi:transfer" x="-9" y="-13" height="18" width="18.0" class="key trans tap glyph mdi:transfer"/>
</g>
<g transform="translate(28, 252)" class="key trans keypos-14">
<rect rx="6" ry="6" x="-26" y="-26" width="52" height="52" class="key trans side"/>
<rect rx="4" ry="4" x="-20" y="-24" width="40" height="40" class="key trans"/>
<use href="#mdi:transfer" xlink:href="#mdi:transfer" x="-9" y="-13" height="18" width="18.0" class="key trans tap glyph mdi:transfer"/>
</g>
<g transform="translate(84, 252)" class="key trans keypos-15">
<rect rx="6" ry="6" x="-26" y="-26" width="52" height="52" class="key trans side"/>
<rect rx="4" ry="4" x="-20" y="-24" width="40" height="40" class="key trans"/>
<use href="#mdi:transfer" xlink:href="#mdi:transfer" x="-9" y="-13" height="18" width="18.0" class="key trans tap glyph mdi:transfer"/>
</g>
<g transform="translate(140, 252)" class="key trans keypos-16">
<rect rx="6" ry="6" x="-26" y="-26" width="52" height="52" class="key trans side"/>
<rect rx="4" ry="4" x="-20" y="-24" width="40" height="40" class="key trans"/>
<use href="#mdi:transfer" xlink:href="#mdi:transfer" x="-9" y="-13" height="18" width="18.0" class="key trans tap glyph mdi:transfer"/>
</g>
<g transform="translate(56, 308)" class="key trans keypos-17">
<rect rx="6" ry="6" x="-54" y="-26" width="108" height="52" class="key trans side"/>
<rect rx="4" ry="4" x="-48" y="-24" width="96" height="40" class="key trans"/>
<use href="#mdi:transfer" xlink:href="#mdi:transfer" x="-9" y="-13" height="18" width="18.0" class="key trans tap glyph mdi:transfer"/>
</g>
<g transform="translate(140, 308)" class="key trans keypos-18">
<rect rx="6" ry="6" x="-26" y="-26" width="52" height="52" class="key trans side"/>
<rect rx="4" ry="4" x="-20" y="-24" width="40" height="40" class="key trans"/>
<use href="#mdi:transfer" xlink:href="#mdi:transfer" x="-9" y="-13" height="18" width="18.0" class="key trans tap glyph mdi:transfer"/>
</g>
<g transform="translate(196, 280)" class="key trans keypos-19">
<rect rx="6" ry="6" x="-26" y="-54" width="52" height="108" class="key trans side"/>
<rect rx="4" ry="4" x="-20" y="-52" width="40" height="96" class="key trans"/>
<use href="#mdi:transfer" xlink:href="#mdi:transfer" x="-9" y="-13" height="18" width="18.0" class="key trans tap glyph mdi:transfer"/>
</g>
</g>
</g>
</svg>
